<?xml version="1.0" encoding="UTF-8"?><svg id="Layer_1" xmlns="http://www.w3.org/2000/svg" viewBox="0 0 482 491.15"><defs><style>.cls-1{fill:#e87e00;}.cls-2{fill:#3185ea;}.cls-3{fill:#53c453;}</style></defs><path class="cls-1" d="m281.31,259.16c2.48-4.71,4.36-9.59,5.32-14.9,1.4-7.76.64-15.29-1.9-22.61-2.23-6.42-5.76-12.18-10.69-16.89-7.19-6.87-15.69-10.99-25.68-12.27-12.68-1.63-24.01,1.6-33.79,9.43-8.76,7.01-14.15,16.35-15.86,27.63-1.37,9.07-.2,17.78,3.48,26.15.9,2.05,2.19,3.93,3.3,5.89-5.18-.93-9.89-3.2-14.55-5.46-8.34-4.04-16.08-9.02-23.2-15.01-6.78-5.7-12.89-11.96-18.13-19.12-5.01-6.85-9.29-14.07-12.71-21.85-5.19-11.81-8.32-24.15-9.1-36.96-.51-8.34-.58-16.78.85-25.1,1.27-7.39,2.7-14.71,5.4-21.77,1.6-4.19,3.54-8.23,5.1-12.44h-.01c.64-.46.91-1.13.97-1.9h-.01c.28-.08.42-.26.37-.56,0-.13.04-.26.1-.37.27-.09.43-.27.39-.57,0-.14.04-.26.11-.38.48-.21.48-.6.38-1.02,1.15-2.86,3.4-4.99,5-7.56,4.95-7.9,11.42-14.6,17.66-21.44,7.4-8.11,14.88-16.17,22.57-24,13.41-13.63,27.02-27.07,40.54-40.6,1.89-1.89,4.27-3.26,5.85-5.48.31,0,.61,0,.92,0,5.49,4.41,10.97,8.82,16.46,13.23,5.51,4.42,11.06,8.77,16.51,13.25,5.16,4.24,10.26,8.56,15.33,12.9,5.08,4.35,10.11,8.77,15.14,13.18,6.51,5.71,13.09,11.34,19.49,17.18,6.07,5.54,11.55,11.64,16.33,18.35.13.19.25.38.38.57.19.28.38.57.57.85-.04.31.11.48.39.58.19.28.38.56.57.85-.05.31.11.49.38.58.19.28.38.56.57.85-.05.31.11.49.39.58.19.28.38.57.57.85-.05.31.11.49.39.58.06.11.09.23.1.36-.05.32.11.5.39.6.14.15.29.3.43.45,1.51,3.89,3.73,7.44,5.47,11.23,6.11,13.28,8.92,27.3,9.77,41.76.42,7.09-.31,14.16-1.29,21.22-1.65,11.9-5.26,23.14-10.51,33.89-3.68,7.55-8.43,14.42-13.45,21.12-.14.14-.27.28-.41.42l-.06.06c-.14.14-.28.28-.42.42l-.05.05c-.11.14-.23.27-.34.41-.21.34-.42.69-.63,1.03-.14.14-.27.27-.41.41-.18.18-.35.35-.53.53-.14.15-.28.29-.42.44l-.05.05c-.14.14-.29.29-.43.43l-.04.04c-.14.14-.29.29-.43.43,0,0-.04.04-.04.04-.12.14-.23.28-.35.43-.05.18-.1.36-.15.54-.13.14-.27.28-.4.41l-.06.06c-.14.14-.28.28-.41.41,0,0-.06.06-.06.06-.14.14-.28.28-.42.42l-.06.06c-.14.14-.28.28-.42.42l-.05.05c-.14.14-.28.28-.43.42l-.05.05c-.14.14-.28.28-.43.43l-.05.05c-.14.14-.29.29-.43.43l-.05.05c-.14.14-.29.29-.43.43l-.05.05c-.14.14-.29.29-.43.43l-.05.05c-.14.14-.29.28-.43.43l-.05.05c-.14.14-.29.28-.43.43,0,0-.05.05-.05.05-.14.14-.29.28-.43.43l-.05.05c-.14.14-.29.29-.43.43l-.05.05c-.14.14-.29.28-.43.43l-.04.05c-1.56.41-2.31,1.76-3.3,2.83l-.04.03c-.15.15-.29.29-.44.44l-.03.04c-.3.1-.66.12-.87.31-4.19,3.71-8.77,6.87-13.59,9.7-5.56,3.27-11.19,6.41-17.37,8.41Z"/><path class="cls-3" d="m267.87,326.58c.62,13.18,5.97,24.16,15.96,32.66,6.37,5.42,13.86,8.65,22.27,9.77,9.75,1.3,18.99-.08,27.6-4.83,12.13-6.7,19.63-16.88,22.47-30.51,2.07-9.91.74-19.43-3.58-28.44-3.71-7.73-9.35-13.89-16.76-18.4-8.12-4.94-16.95-6.85-26.35-6.56,1.35-1.43,3.14-2.22,4.81-3.15,14.38-8.02,29.81-12.78,46.2-13.91,9.51-.66,19.12-.42,28.54,1.39,12.15,2.34,23.75,6.28,34.58,12.37,11.66,6.57,21.99,14.79,30.68,24.97,1.51,1.77,3.48,3.22,4.44,5.46-.08.32.08.48.37.56.35.45.71.9,1.06,1.35-.08.32.08.48.37.56.35.45.71.9,1.06,1.35-.08.32.08.48.37.56.2.29.39.58.59.87-.08.32.08.49.37.56.19.29.39.58.58.87-.08.32.08.48.37.56.15.15.3.31.46.46.14,1,.45,1.9,1.45,2.39h0c-.01,1.21.91,1.96,1.44,2.91,9.77,17.38,14.38,36.15,14.76,55.98.11,5.77-.15,11.55-.29,17.33-.41,16.49.03,32.99-.56,49.49-.37,10.29-.16,20.61-.63,30.9-.19,4.11-.24,8.22-.39,12.33-.03.76.17,1.82-1.05,1.7-1.67-.17-3.05.68-4.57,1-5.08,1.07-10.26.29-15.39.81-6.29.64-12.66.09-19,.49-9.25.58-18.54.2-27.82.45-15.95.43-31.93.24-47.89.07-5.51-.06-11.02-.77-16.47-1.67-6.26-1.03-11.95-3.66-17.8-5.97-9.4-3.72-18.23-8.31-26.45-14.13-8.83-6.26-16.63-13.64-23.22-22.21-9.03-11.74-15.77-24.69-19.75-39.01-2.46-8.83-4.12-17.78-4.15-26.96-.02-5.14-.17-10.27.38-15.42.84-7.88,2.02-15.64,4.54-23.19,1.79-5.37,4.13-10.51,6.05-15.81h0s.19.03.19.03h.19Z"/><path class="cls-2" d="m172.73,280.94c-6.61-.22-13.13.27-19.39,2.58-9.79,3.61-17.42,9.95-22.93,18.74-4.02,6.42-6.08,13.47-6.3,21.12-.22,7.62.82,14.92,4.31,21.76,6.51,12.73,16.65,20.96,30.67,23.98,13.62,2.94,26.12,0,37.16-8.47,8.53-6.55,13.66-15.42,15.99-25.8.87-3.85,1.24-7.9,1.12-11.91.07.04.16.07.2.13,7.7,14.17,12.34,29.35,13.46,45.38.81,11.57.18,23.15-2.59,34.57-2.49,10.26-6.29,19.95-11.35,29.16-4.15,7.55-9.2,14.46-15.03,20.82-7.74,8.45-16.66,15.44-26.24,21.65-.36-.08-.69-.08-.86.33-.18.05-.36.11-.54.16-.14.1-.28.2-.42.3-.18.06-.36.12-.53.18-.14.1-.28.2-.42.3-.34.22-.68.43-1.02.65-.14.1-.28.2-.41.3-.18.06-.36.12-.54.18-.14.1-.28.2-.42.3-.18.06-.36.12-.54.18-.14.1-.28.2-.42.3-.18.06-.35.12-.53.18-.14.1-.28.2-.42.3-.18.06-.35.12-.53.18-.14.1-.28.2-.42.3-.18.06-.35.12-.53.18-.14.1-.28.2-.42.3-.18.06-.36.12-.53.18-.14.1-.28.2-.42.3-.17.06-.34.12-.5.18-.79-.13-1.39.2-1.87.79l-.1.09c-.74,0-1.35.28-1.81.86-.17.06-.34.11-.5.17-1.07-.05-1.96.48-2.91.84-11.28,4.26-22.93,7.06-34.99,7.07-17.75.02-35.49.3-53.25-.26-11.47-.36-22.95-.78-34.44-.62-.48,0-.95,0-1.43-.03-7.56-.62-15.13-.76-22.71-.82-1.03-.03-2.06-.09-3.09-.09-1.2,0-1.69-.59-1.7-1.77-.02-2.68-.32-5.36-.38-8.02-.22-9.4-.52-18.79-1.01-28.18-.34-6.55-.02-13.11-.4-19.69-.63-10.66.02-21.36-.46-32.06-.47-10.43-.45-20.91.41-31.34.29-3.52.36-7.15,1.12-10.52,1.63-7.22,3.84-14.31,6.53-21.25.9-2.32,2.58-4.33,2.83-6.91h0c.3-.06.46-.22.36-.54.01-.14.05-.27.11-.4.29-.07.46-.23.36-.56.01-.14.05-.27.11-.4.29-.07.46-.23.37-.56.01-.14.05-.27.11-.4.29-.07.46-.22.37-.55.01-.14.05-.27.11-.4.66-.25,1.02-.71.96-1.44h0c.3-.06.46-.22.36-.54.01-.14.05-.27.11-.4.29-.07.46-.22.37-.55.2-.29.39-.58.59-.88.29-.07.46-.23.36-.56.01-.14.05-.27.11-.4.29-.07.46-.23.36-.56.2-.29.39-.58.59-.87.29-.07.46-.22.37-.55.01-.14.05-.27.12-.4.29-.07.46-.23.36-.55,6.85-10.33,14.94-19.53,24.68-27.27,11.87-9.44,24.96-16.41,39.59-20.59,10.83-3.1,21.85-4.34,33.06-4.6,2.47-.06,4.83.55,7.29.55,4.46,0,8.86.79,13.23,1.64,7.77,1.52,15.33,3.78,22.63,6.89,5.05,2.15,10.09,4.3,14.51,7.64Z"/></svg>