<?xml version="1.0" encoding="UTF-8"?><svg id="Layer_1" xmlns="http://www.w3.org/2000/svg" viewBox="0 0 474.01 483"><defs><style>.cls-1{fill:#f56200;}.cls-2{fill:#0073e6;}.cls-3{fill:#3cce3c;}</style></defs><path class="cls-1" d="m276.64,254.86c2.44-4.63,4.28-9.43,5.23-14.65,1.38-7.63.63-15.03-1.87-22.24-2.19-6.31-5.66-11.98-10.51-16.61-7.07-6.75-15.43-10.8-25.26-12.07-12.47-1.6-23.61,1.58-33.23,9.27-8.61,6.9-13.92,16.07-15.6,27.17-1.35,8.92-.2,17.49,3.42,25.72.89,2.02,2.15,3.87,3.25,5.8-5.1-.91-9.73-3.14-14.31-5.37-8.2-3.97-15.81-8.87-22.82-14.76-6.67-5.61-12.67-11.77-17.83-18.8-4.93-6.73-9.14-13.84-12.5-21.48-5.11-11.61-8.18-23.75-8.95-36.35-.5-8.2-.57-16.5.84-24.69,1.25-7.26,2.66-14.47,5.31-21.41,1.58-4.12,3.48-8.1,5.02-12.23h-.01c.63-.45.89-1.11.96-1.87h-.01c.27-.08.42-.25.37-.55,0-.13.03-.25.09-.37.27-.09.42-.26.38-.56,0-.13.04-.26.1-.38.47-.21.47-.59.37-1,1.13-2.81,3.34-4.91,4.92-7.43,4.87-7.77,11.23-14.35,17.37-21.09,7.28-7.98,14.63-15.9,22.2-23.6,13.19-13.41,26.57-26.62,39.86-39.92,1.86-1.86,4.2-3.2,5.75-5.39.3,0,.6,0,.9,0,5.4,4.34,10.79,8.68,16.19,13.01,5.41,4.34,10.87,8.63,16.24,13.03,5.08,4.17,10.09,8.42,15.08,12.69,5,4.28,9.94,8.63,14.89,12.96,6.4,5.61,12.87,11.16,19.16,16.9,5.97,5.45,11.36,11.45,16.06,18.05.12.19.25.37.37.56.19.28.38.56.56.84-.04.3.11.47.38.57.19.28.38.56.56.83-.05.31.11.48.38.57.19.28.37.55.56.83-.05.31.11.48.38.57.19.28.37.56.56.83-.05.31.11.48.38.57.06.11.09.23.1.35-.05.31.11.49.38.59.14.15.28.29.43.44,1.49,3.83,3.67,7.32,5.38,11.04,6.01,13.06,8.77,26.85,9.61,41.06.41,6.97-.3,13.93-1.27,20.87-1.63,11.7-5.17,22.76-10.33,33.33-3.62,7.42-8.29,14.18-13.23,20.77-.13.14-.27.27-.4.41l-.06.06c-.14.14-.28.28-.42.42l-.05.05c-.11.13-.22.27-.34.4-.21.34-.41.68-.62,1.01-.13.13-.27.27-.4.4-.17.17-.35.35-.52.52-.14.14-.28.29-.42.43l-.05.05c-.14.14-.28.28-.43.42l-.04.04c-.14.14-.28.28-.43.43l-.04.04c-.11.14-.23.28-.34.42-.05.18-.1.35-.15.53-.13.14-.27.27-.4.41l-.06.06c-.14.14-.27.27-.41.41l-.06.06c-.14.14-.27.27-.41.41l-.06.06-.42.41-.05.05-.42.42-.05.05c-.14.14-.28.28-.42.42l-.05.05c-.14.14-.28.28-.42.42l-.05.05c-.14.14-.28.28-.42.42l-.05.05-.42.42-.05.05c-.14.14-.28.28-.42.42l-.05.05c-.14.14-.28.28-.42.42l-.05.05c-.14.14-.28.28-.42.42l-.05.05c-.14.14-.28.28-.42.42l-.05.05c-.14.14-.28.28-.42.42l-.04.05c-1.53.4-2.27,1.73-3.25,2.78l-.04.03c-.14.14-.29.29-.43.43l-.03.04c-.29.1-.65.12-.86.31-4.12,3.65-8.62,6.76-13.36,9.54-5.47,3.22-11,6.31-17.08,8.27Z"/><path class="cls-3" d="m263.43,321.17c.61,12.97,5.87,23.76,15.7,32.12,6.26,5.33,13.63,8.51,21.9,9.61,9.59,1.28,18.68-.08,27.14-4.75,11.93-6.59,19.3-16.6,22.1-30,2.03-9.75.73-19.11-3.52-27.97-3.65-7.6-9.2-13.66-16.49-18.1-7.99-4.86-16.67-6.74-25.91-6.45,1.33-1.41,3.09-2.18,4.73-3.09,14.14-7.88,29.32-12.56,45.44-13.68,9.36-.65,18.8-.42,28.07,1.37,11.94,2.3,23.36,6.17,34.01,12.16,11.47,6.46,21.62,14.55,30.17,24.56,1.49,1.74,3.43,3.17,4.36,5.37-.08.31.08.47.36.55.35.44.7.88,1.04,1.33-.08.32.08.47.36.55.35.44.69.89,1.04,1.33-.08.31.08.47.36.55.19.28.39.57.58.85-.08.32.08.48.37.55.19.29.38.57.57.86-.08.32.08.48.37.55.15.15.3.3.45.46.14.99.44,1.87,1.42,2.35h0c-.01,1.19.9,1.93,1.42,2.86,9.61,17.1,14.14,35.55,14.51,55.06.11,5.67-.15,11.36-.29,17.04-.4,16.22.03,32.45-.55,48.67-.36,10.12-.16,20.27-.62,30.39-.18,4.04-.23,8.08-.38,12.12-.03.75.17,1.79-1.03,1.67-1.64-.17-3,.67-4.49.98-5,1.06-10.09.28-15.13.79-6.19.63-12.45.09-18.69.48-9.1.57-18.24.2-27.36.44-15.69.42-31.4.24-47.09.07-5.42-.06-10.83-.76-16.2-1.64-6.16-1.02-11.75-3.6-17.51-5.87-9.24-3.65-17.93-8.17-26.01-13.9-8.68-6.15-16.35-13.41-22.84-21.84-8.88-11.55-15.5-24.28-19.43-38.37-2.42-8.68-4.05-17.49-4.08-26.52-.02-5.05-.17-10.1.37-15.17.83-7.75,1.99-15.38,4.46-22.81,1.76-5.28,4.06-10.33,5.95-15.55h0s.18.03.18.03h.19Z"/><path class="cls-2" d="m169.86,276.28c-6.5-.21-12.91.27-19.07,2.54-9.63,3.55-17.13,9.79-22.55,18.43-3.96,6.31-5.98,13.25-6.2,20.77-.21,7.49.8,14.67,4.24,21.39,6.4,12.52,16.38,20.61,30.16,23.58,13.39,2.89,25.68,0,36.54-8.33,8.39-6.44,13.43-15.17,15.72-25.37.85-3.79,1.22-7.77,1.1-11.72.07.04.16.07.19.13,7.57,13.94,12.13,28.86,13.24,44.63.8,11.37.18,22.77-2.54,33.99-2.44,10.09-6.19,19.62-11.16,28.68-4.08,7.42-9.05,14.22-14.78,20.48-7.61,8.31-16.38,15.18-25.8,21.29-.35-.08-.68-.08-.84.32-.18.05-.35.11-.53.16-.14.1-.27.19-.41.29l-.53.18c-.14.1-.27.2-.41.29-.33.21-.67.43-1,.64-.14.1-.27.2-.41.29-.18.06-.35.12-.53.17-.14.1-.27.2-.41.29-.18.06-.35.12-.53.17-.14.1-.27.2-.41.29-.17.06-.35.12-.52.18-.14.1-.28.19-.41.29-.17.06-.35.12-.52.18-.14.1-.28.19-.41.29-.17.06-.35.12-.52.18-.14.1-.28.19-.41.29-.17.06-.35.12-.52.18-.14.1-.28.2-.41.29-.16.06-.33.12-.49.18-.78-.13-1.36.2-1.84.78l-.1.08c-.73,0-1.33.28-1.78.85-.16.06-.33.11-.49.17-1.05-.05-1.93.47-2.87.83-11.09,4.19-22.55,6.94-34.41,6.95-17.45.02-34.91.29-52.37-.26-11.28-.35-22.57-.77-33.87-.61-.47,0-.94,0-1.4-.03-7.43-.61-14.88-.75-22.33-.81-1.01-.03-2.03-.09-3.04-.09-1.18,0-1.66-.58-1.67-1.74-.02-2.63-.32-5.27-.38-7.89-.22-9.24-.51-18.48-1-27.71-.34-6.44-.02-12.9-.4-19.36-.62-10.49.02-21.01-.45-31.53-.46-10.25-.44-20.56.4-30.82.28-3.46.35-7.03,1.1-10.35,1.6-7.1,3.78-14.08,6.42-20.89.89-2.28,2.53-4.26,2.78-6.79h0c.29-.06.45-.21.35-.53.01-.14.05-.27.11-.39.29-.07.46-.22.36-.55.01-.14.05-.27.11-.39.29-.07.46-.22.36-.55.01-.14.05-.27.11-.39.29-.07.46-.22.36-.54.01-.14.05-.27.11-.39.65-.25,1-.7.94-1.42h0c.29-.06.45-.21.35-.54.01-.14.05-.27.11-.39.29-.07.46-.22.36-.54.19-.29.38-.57.58-.86.29-.07.46-.22.36-.55.01-.14.05-.27.11-.39.29-.07.45-.22.36-.55.19-.29.39-.57.58-.86.29-.07.46-.22.36-.54.01-.14.05-.27.11-.39.28-.07.45-.22.36-.54,6.74-10.16,14.7-19.2,24.27-26.81,11.68-9.28,24.55-16.14,38.93-20.25,10.65-3.04,21.49-4.27,32.51-4.53,2.43-.06,4.75.54,7.17.54,4.39,0,8.72.77,13.01,1.61,7.64,1.5,15.07,3.72,22.25,6.77,4.97,2.11,9.92,4.23,14.27,7.52Z"/></svg>